<svg width="24" height="24" viewBox="0 0 24 24" fill="none" xmlns="http://www.w3.org/2000/svg">
  <path d="M9 12l2 2 4-4" stroke="#7C3AED" stroke-width="2" stroke-linecap="round" stroke-linejoin="round"/>
  <path d="M21 12c.552 0 1-.448 1-1V8c0-.552-.448-1-1-1h-1V6a4 4 0 0 0-4-4H8a4 4 0 0 0-4 4v1H3c-.552 0-1 .448-1 1v3c0 .552.448 1 1 1h1v7a4 4 0 0 0 4 4h8a4 4 0 0 0 4-4v-7h1z" stroke="#7C3AED" stroke-width="2" stroke-linecap="round" stroke-linejoin="round"/>
  <circle cx="9" cy="9" r="1" fill="#7C3AED"/>
  <circle cx="15" cy="9" r="1" fill="#7C3AED"/>
</svg>