<svg xmlns="http://www.w3.org/2000/svg" preserveAspectRatio="xMidYMid" viewBox="0 0 256 262">
  <path fill="#4285F4" d="M255.878 133.451c0-10.734-.871-18.567-2.756-26.686H130.55v48.448h71.947c-1.45 12.04-9.283 30.172-26.69 42.356l-.007-.002-33.723 26.137 4.29 32.387c-4.862 3.33-8.594 6.515-11.988 9.574 23.259-21.538 39.827-49.978 39.827-82.213z"/>
  <path fill="#34A853" d="M130.55 261.1c33.615 0 61.758-11.018 82.4-29.693l-41.256-31.938c-11.314 7.623-25.79 12.04-41.144 12.04-32.062 0-59.323-21.539-68.99-50.562l-40.524 31.087-.008.003c20.124 39.58 59.299 66.999 108.412 66.999z"/>
  <path fill="#FBBC05" d="M61.56 157.009c-3.46-10.733-5.09-22.135-5.09-34.138 0-12.001 1.626-23.403 5.09-34.135l-.008-.003L15.32 58.414l-.952.482C5.062 77.022 0 99.412 0 122.87c0 23.46 5.062 45.849 14.368 64.918l47.192-36.976z"/>
  <path fill="#EB4335" d="M130.55 50.479c24.514 0 35.823 20.739 35.823 37.439 0 16.7-11.313 37.439-35.823 37.439s-35.823-20.739-35.823-37.439c0-16.7 11.309-37.439 35.823-37.439zM130.55 0C81.438 0 42.263 27.419 21.49 66.999l40.484 31.029c9.667-29.023 36.928-50.562 68.576-50.562 17.273 0 32.956 5.433 43.688 15.6l4.46-32.083C192.308 11.018 164.165 0 130.55 0z"/>
</svg> 