<svg width="1001" height="349" viewBox="0 0 1001 349" fill="none" xmlns="http://www.w3.org/2000/svg">
<mask id="mask0_1_13" style="mask-type:luminance" maskUnits="userSpaceOnUse" x="0" y="0" width="233" height="349">
<path d="M232.667 0H0V349H232.667V0Z" fill="white"/>
</mask>
<g mask="url(#mask0_1_13)">
<path fill-rule="evenodd" clip-rule="evenodd" d="M4.47327 104.638C18.9851 104.007 33.6004 103.796 48.3195 104.006C59.704 115.358 70.716 127.159 81.3545 139.412C74.3144 147.243 67.1068 154.83 59.7316 162.172C41.2026 142.877 22.783 123.7 4.47327 104.638Z" fill="#6334E6"/>
<path fill-rule="evenodd" clip-rule="evenodd" d="M71.1434 104.638C85.6553 104.007 100.27 103.796 114.99 104.006C137.192 127.06 159.316 150.243 181.36 173.553C181.76 173.974 181.76 174.395 181.36 174.818C174.152 182.404 166.944 189.991 159.737 197.578C130.285 166.471 100.754 135.491 71.1434 104.638Z" fill="#6334E6"/>
<path fill-rule="evenodd" clip-rule="evenodd" d="M48.3195 244.364C33.6004 244.573 18.9851 244.363 4.47327 243.731C33.8917 212.975 63.3228 182.206 92.7664 151.424C100.434 159.958 107.655 165.831 114.69 173.552C115.09 173.974 115.09 174.395 114.69 174.816C92.6458 198.126 70.522 221.309 48.3195 244.364Z" fill="#6334E6"/>
<path fill-rule="evenodd" clip-rule="evenodd" d="M114.99 244.363C100.27 244.572 85.6553 244.362 71.1434 243.73C89.5504 224.565 107.969 205.387 126.402 186.196C133.926 193.589 141.134 201.282 148.025 209.273C137.318 221.281 126.305 232.978 114.99 244.363Z" fill="#6334E6"/>
</g>
<path d="M237.32 255.933V88.4133H308.051C309.679 88.4133 311.851 88.4909 314.565 88.646C317.357 88.7236 319.839 88.9563 322.011 89.344C332.015 90.8951 340.197 94.1913 346.557 99.2323C352.994 104.273 357.725 110.633 360.75 118.311C363.774 125.911 365.287 134.403 365.287 143.788C365.287 157.826 361.797 169.847 354.817 179.851C347.837 189.778 336.901 195.905 322.011 198.232L308.051 199.163H268.963V255.933H237.32ZM331.783 255.933L298.744 187.762L331.317 181.48L367.613 255.933H331.783ZM268.963 169.614H306.655C308.283 169.614 310.067 169.536 312.006 169.381C313.945 169.227 315.729 168.916 317.357 168.451C321.623 167.287 324.919 165.348 327.246 162.634C329.572 159.842 331.163 156.779 332.015 153.444C332.946 150.032 333.411 146.813 333.411 143.788C333.411 140.763 332.946 137.584 332.015 134.249C331.163 130.837 329.572 127.772 327.246 125.058C324.919 122.266 321.623 120.289 317.357 119.125C315.729 118.66 313.945 118.349 312.006 118.195C310.067 118.04 308.283 117.962 306.655 117.962H268.963V169.614ZM451.587 259.423C438.714 259.423 427.352 256.67 417.502 251.164C407.73 245.58 400.052 237.94 394.468 228.246C388.962 218.474 386.208 207.306 386.208 194.742C386.208 181.015 388.923 169.071 394.351 158.911C399.781 148.752 407.264 140.88 416.804 135.296C426.343 129.634 437.318 126.803 449.726 126.803C462.911 126.803 474.118 129.906 483.346 136.11C492.576 142.314 499.4 151.039 503.821 162.285C508.242 173.531 509.794 186.753 508.474 201.955H477.181V190.321C477.181 177.525 475.126 168.334 471.015 162.75C466.983 157.088 460.352 154.258 451.122 154.258C440.343 154.258 432.392 157.554 427.274 164.146C422.233 170.661 419.712 180.317 419.712 193.113C419.712 204.825 422.233 213.899 427.274 220.335C432.392 226.695 439.877 229.875 449.726 229.875C455.931 229.875 461.243 228.517 465.664 225.803C470.084 223.089 473.458 219.172 475.785 214.053L507.427 223.127C502.697 234.606 495.212 243.524 484.975 249.884C474.816 256.244 463.686 259.423 451.587 259.423ZM409.94 201.955V178.455H493.235V201.955H409.94ZM592.99 259.423C580.504 259.423 570.073 256.515 561.697 250.698C553.321 244.882 547 236.971 542.734 226.966C538.546 216.962 536.452 205.677 536.452 193.113C536.452 180.549 538.546 169.265 542.734 159.26C546.922 149.256 553.088 141.345 561.231 135.528C569.375 129.712 579.419 126.803 591.362 126.803C603.384 126.803 613.854 129.673 622.772 135.412C631.691 141.151 638.593 149.023 643.479 159.028C648.443 168.954 650.924 180.317 650.924 193.113C650.924 205.677 648.481 216.962 643.595 226.966C638.787 236.971 632.04 244.882 623.354 250.698C614.668 256.515 604.547 259.423 592.99 259.423ZM531.101 311.773V130.293H559.021V216.38H562.976V311.773H531.101ZM587.872 231.271C594.697 231.271 600.281 229.564 604.624 226.152C608.968 222.74 612.185 218.163 614.279 212.425C616.373 206.608 617.42 200.171 617.42 193.113C617.42 186.133 616.335 179.773 614.163 174.035C611.992 168.218 608.619 163.603 604.042 160.191C599.545 156.701 593.766 154.956 586.708 154.956C580.117 154.956 574.766 156.546 570.654 159.726C566.622 162.905 563.674 167.365 561.813 173.104C559.952 178.843 559.021 185.513 559.021 193.113C559.021 200.713 559.952 207.384 561.813 213.123C563.674 218.861 566.699 223.322 570.887 226.501C575.153 229.68 580.815 231.271 587.872 231.271ZM678.85 255.933V84.9233H710.493V255.933H678.85ZM761.424 311.773L785.621 245.231L786.086 264.775L731.41 130.293H764.216L800.977 225.454H793.532L830.06 130.293H861.703L790.74 311.773H761.424Z" fill="black"/>
<path d="M864.102 255.933L909.007 192.415L865.033 130.293H902.259L927.387 167.52L952.05 130.293H989.277L945.303 192.415L990.44 255.933H953.213L927.387 217.311L901.329 255.933H864.102Z" fill="#6334E6"/>
</svg>
